# xmcd
#
# Track frame offsets:
#	150
#	2855
#	77106
#	78809
#
# Disc length: 2064 seconds
#
# Revision: 1
# Processed by: cddbd v1.5.1PL0 Copyright (c) Steve Scherf et al.
# Submitted via: audiograbber 1.82.02
#
DISCID=1e080e04
DTITLE=Deepak Chopra - Weight Loss
DYEAR=2005
DGENRE=audio book
TTITLE0=disc 4 Track  1
TTITLE1=disc 4 Track  2
TTITLE2=disc 4 Track 3
TTITLE3=disc 4 Track  4
EXTD=
EXTT0=
EXTT1=
EXTT2=
EXTT3=
PLAYORDER=
